<svg xmlns="http://www.w3.org/2000/svg" xmlns:xlink="http://www.w3.org/1999/xlink" width="2000" zoomAndPan="magnify" viewBox="0 0 1500 1499.999933" height="2000" preserveAspectRatio="xMidYMid meet" version="1.0"><defs><clipPath id="c35412f9ba"><path d="M 427.476562 0.386719 L 1058.523438 0.386719 L 1058.523438 631.433594 L 427.476562 631.433594 Z M 427.476562 0.386719 " clip-rule="nonzero"/></clipPath><clipPath id="386c293830"><path d="M 743 0.386719 C 568.742188 0.386719 427.476562 141.652344 427.476562 315.910156 C 427.476562 490.171875 568.742188 631.433594 743 631.433594 C 917.257812 631.433594 1058.523438 490.171875 1058.523438 315.910156 C 1058.523438 141.652344 917.257812 0.386719 743 0.386719 Z M 743 0.386719 " clip-rule="nonzero"/></clipPath><clipPath id="7ebd761f6f"><path d="M 0.476562 0.386719 L 631.523438 0.386719 L 631.523438 631.433594 L 0.476562 631.433594 Z M 0.476562 0.386719 " clip-rule="nonzero"/></clipPath><clipPath id="b9c6ed5b3c"><path d="M 316 0.386719 C 141.742188 0.386719 0.476562 141.652344 0.476562 315.910156 C 0.476562 490.171875 141.742188 631.433594 316 631.433594 C 490.257812 631.433594 631.523438 490.171875 631.523438 315.910156 C 631.523438 141.652344 490.257812 0.386719 316 0.386719 Z M 316 0.386719 " clip-rule="nonzero"/></clipPath><clipPath id="d01384ad0c"><rect x="0" width="632" y="0" height="632"/></clipPath><clipPath id="66caea124c"><path d="M 0.679688 631.433594 L 1485.175781 631.433594 L 1485.175781 1373.613281 L 0.679688 1373.613281 Z M 0.679688 631.433594 " clip-rule="nonzero"/></clipPath><clipPath id="3696dc504e"><path d="M 1485.175781 1373.613281 C 1485.175781 969.359375 1147.253906 631.433594 743 631.433594 C 338.746094 631.433594 0.824219 969.359375 0.824219 1373.613281 L 412.925781 1373.613281 C 412.925781 1193.824219 563.214844 1043.535156 743 1043.535156 C 922.785156 1043.535156 1073.074219 1193.824219 1073.074219 1373.613281 Z M 1485.175781 1373.613281 " clip-rule="nonzero"/></clipPath><clipPath id="ae0d218978"><path d="M 0.679688 0.433594 L 1485.175781 0.433594 L 1485.175781 742.613281 L 0.679688 742.613281 Z M 0.679688 0.433594 " clip-rule="nonzero"/></clipPath><clipPath id="7bc9e2d3bd"><path d="M 1485.175781 742.613281 C 1485.175781 338.359375 1147.253906 0.433594 743 0.433594 C 338.746094 0.433594 0.824219 338.359375 0.824219 742.613281 L 412.925781 742.613281 C 412.925781 562.824219 563.214844 412.535156 743 412.535156 C 922.785156 412.535156 1073.074219 562.824219 1073.074219 742.613281 Z M 1485.175781 742.613281 " clip-rule="nonzero"/></clipPath><clipPath id="7fe7a476af"><rect x="0" width="1486" y="0" height="743"/></clipPath><clipPath id="cf6b478887"><rect x="0" width="1486" y="0" height="1374"/></clipPath></defs><g transform="matrix(1, 0, 0, 1, 7, 63)"><g clip-path="url(#cf6b478887)"><g clip-path="url(#c35412f9ba)"><g clip-path="url(#386c293830)"><g transform="matrix(1, 0, 0, 1, 427, 0.000000000000113687)"><g clip-path="url(#d01384ad0c)"><g clip-path="url(#7ebd761f6f)"><g clip-path="url(#b9c6ed5b3c)"><path fill="#f2f2f2" d="M 0.476562 0.386719 L 631.523438 0.386719 L 631.523438 631.433594 L 0.476562 631.433594 Z M 0.476562 0.386719 " fill-opacity="1" fill-rule="nonzero"/></g></g></g></g></g></g><g clip-path="url(#66caea124c)"><g clip-path="url(#3696dc504e)"><g transform="matrix(1, 0, 0, 1, -0.000000000000000888, 631)"><g clip-path="url(#7fe7a476af)"><g clip-path="url(#ae0d218978)"><g clip-path="url(#7bc9e2d3bd)"><path fill="#f2f2f2" d="M 0.824219 0.433594 L 1485.175781 0.433594 L 1485.175781 742.613281 L 0.824219 742.613281 Z M 0.824219 0.433594 " fill-opacity="1" fill-rule="nonzero"/></g></g></g></g></g></g></g></g></svg>