<svg xmlns="http://www.w3.org/2000/svg" xmlns:xlink="http://www.w3.org/1999/xlink" width="2000" zoomAndPan="magnify" viewBox="0 0 1500 1499.999933" height="2000" preserveAspectRatio="xMidYMid meet" version="1.0"><defs><clipPath id="f994d61a1c"><path d="M 750 0 C 335.785156 0 0 335.785156 0 750 C 0 1164.214844 335.785156 1500 750 1500 C 1164.214844 1500 1500 1164.214844 1500 750 C 1500 335.785156 1164.214844 0 750 0 Z M 750 0 " clip-rule="nonzero"/></clipPath><clipPath id="5919394591"><path d="M 0 0 L 1500 0 L 1500 1500 L 0 1500 Z M 0 0 " clip-rule="nonzero"/></clipPath><clipPath id="a6c178f6d7"><path d="M 750 0 C 335.785156 0 0 335.785156 0 750 C 0 1164.214844 335.785156 1500 750 1500 C 1164.214844 1500 1500 1164.214844 1500 750 C 1500 335.785156 1164.214844 0 750 0 Z M 750 0 " clip-rule="nonzero"/></clipPath><clipPath id="c55dc43360"><rect x="0" width="1500" y="0" height="1500"/></clipPath><clipPath id="2e34ea72f1"><path d="M 106.953125 106.953125 L 1393.046875 106.953125 L 1393.046875 1393.046875 L 106.953125 1393.046875 Z M 106.953125 106.953125 " clip-rule="nonzero"/></clipPath><clipPath id="81666cada6"><path d="M 750 106.953125 C 394.855469 106.953125 106.953125 394.855469 106.953125 750 C 106.953125 1105.144531 394.855469 1393.046875 750 1393.046875 C 1105.144531 1393.046875 1393.046875 1105.144531 1393.046875 750 C 1393.046875 394.855469 1105.144531 106.953125 750 106.953125 Z M 750 106.953125 " clip-rule="nonzero"/></clipPath><clipPath id="0c47075696"><path d="M 0.953125 0.953125 L 1287.046875 0.953125 L 1287.046875 1287.046875 L 0.953125 1287.046875 Z M 0.953125 0.953125 " clip-rule="nonzero"/></clipPath><clipPath id="75fbe314b3"><path d="M 644 0.953125 C 288.855469 0.953125 0.953125 288.855469 0.953125 644 C 0.953125 999.144531 288.855469 1287.046875 644 1287.046875 C 999.144531 1287.046875 1287.046875 999.144531 1287.046875 644 C 1287.046875 288.855469 999.144531 0.953125 644 0.953125 Z M 644 0.953125 " clip-rule="nonzero"/></clipPath><clipPath id="094c53827c"><rect x="0" width="1288" y="0" height="1288"/></clipPath></defs><g clip-path="url(#f994d61a1c)"><g transform="matrix(1, 0, 0, 1, 0, 0.000000000000112861)"><g clip-path="url(#c55dc43360)"><g clip-path="url(#5919394591)"><g clip-path="url(#a6c178f6d7)"><rect x="-330" width="2160" fill="#444444" height="2159.999904" y="-329.999985" fill-opacity="1"/></g></g></g></g></g><g clip-path="url(#2e34ea72f1)"><g clip-path="url(#81666cada6)"><g transform="matrix(1, 0, 0, 1, 106, 106)"><g clip-path="url(#094c53827c)"><g clip-path="url(#0c47075696)"><g clip-path="url(#75fbe314b3)"><path fill="#ffffff" d="M 0.953125 0.953125 L 1287.046875 0.953125 L 1287.046875 1287.046875 L 0.953125 1287.046875 Z M 0.953125 0.953125 " fill-opacity="1" fill-rule="nonzero"/></g></g></g></g></g></g><path stroke-linecap="round" transform="matrix(0.739795, -0.1233, 0.1233, 0.739795, 9.435236, 295.338706)" fill="none" stroke-linejoin="miter" d="M 36.591329 280.9334 C 499.325399 -58.021488 901.944547 -58.97384 1244.449629 278.071206 " stroke="#444444" stroke-width="52" stroke-opacity="1" stroke-miterlimit="4"/><path stroke-linecap="round" transform="matrix(0.439262, -0.607905, 0.607905, 0.439262, -60.7521, 813.551862)" fill="none" stroke-linejoin="miter" d="M 35.482937 137.257 C 325.473874 -11.941477 662.573349 -11.081881 1046.791685 139.841181 " stroke="#444444" stroke-width="52" stroke-opacity="1" stroke-miterlimit="4"/><path stroke-linecap="round" transform="matrix(0.420962, -0.620718, 0.620718, 0.420962, -38.957018, 1046.68537)" fill="none" stroke-linejoin="miter" d="M 35.659481 308.055032 C 689.262324 -65.670558 1172.350915 -68.003426 1484.920944 301.059351 " stroke="#444444" stroke-width="52" stroke-opacity="1" stroke-miterlimit="4"/><path stroke-linecap="round" transform="matrix(0.296282, -0.688997, 0.688997, 0.296282, 125.337987, 1280.166902)" fill="none" stroke-linejoin="miter" d="M 36.729033 539.335088 C 832.835338 -142.56847 1348.360187 -145.10097 1583.287835 531.727349 " stroke="#444444" stroke-width="52" stroke-opacity="1" stroke-miterlimit="4"/><path stroke-linecap="round" transform="matrix(-0.603682, -0.445048, 0.445048, -0.603682, 1042.3708, 1495.388755)" fill="none" stroke-linejoin="miter" d="M 33.722217 177.391083 C 559.222001 -21.980907 943.327112 -24.433425 1186.027178 170.028234 " stroke="#444444" stroke-width="52" stroke-opacity="1" stroke-miterlimit="4"/><path stroke-linecap="round" transform="matrix(-0.617216, -0.42608, 0.42608, -0.617216, 1163.026565, 1441.4436)" fill="none" stroke-linejoin="miter" d="M 35.252217 305.146444 C 737.413544 -63.515606 1194.07659 -67.016768 1405.258803 294.6499 " stroke="#444444" stroke-width="52" stroke-opacity="1" stroke-miterlimit="4"/><path stroke-linecap="round" transform="matrix(-0.66029, -0.355692, 0.355692, -0.66029, 1293.42789, 1314.516419)" fill="none" stroke-linejoin="miter" d="M 36.293618 408.428414 C 773.732347 -98.380375 1247.837644 -101.454757 1458.607037 399.200681 " stroke="#444444" stroke-width="52" stroke-opacity="1" stroke-miterlimit="4"/></svg>