<svg xmlns="http://www.w3.org/2000/svg" xmlns:xlink="http://www.w3.org/1999/xlink" width="2000" zoomAndPan="magnify" viewBox="0 0 1500 1499.999933" height="2000" preserveAspectRatio="xMidYMid meet" version="1.0"><defs><clipPath id="b8ea971a8f"><path d="M 191.785156 629.855469 L 1308.214844 629.855469 L 1308.214844 1500 L 191.785156 1500 Z M 191.785156 629.855469 " clip-rule="nonzero"/></clipPath><clipPath id="2afd3558da"><path d="M 0.785156 0.855469 L 1116 0.855469 L 1116 871 L 0.785156 871 Z M 0.785156 0.855469 " clip-rule="nonzero"/></clipPath><clipPath id="7baf0206a6"><rect x="0" width="1118" y="0" height="871"/></clipPath><clipPath id="ed46aeac9e"><path d="M 14.382812 3.167969 L 1486 3.167969 L 1486 1331.546875 L 14.382812 1331.546875 Z M 14.382812 3.167969 " clip-rule="nonzero"/></clipPath><clipPath id="7d62146b02"><path d="M 750 3.167969 L 14.382812 667.355469 L 346.476562 667.355469 L 346.476562 1331.546875 L 1153.523438 1331.546875 L 1153.523438 667.355469 L 1485.617188 667.355469 Z M 750 3.167969 " clip-rule="nonzero"/></clipPath><clipPath id="f0dbb7315a"><path d="M 0.382812 0.167969 L 1471.839844 0.167969 L 1471.839844 1328.546875 L 0.382812 1328.546875 Z M 0.382812 0.167969 " clip-rule="nonzero"/></clipPath><clipPath id="d0e3cad890"><path d="M 736 0.167969 L 0.382812 664.355469 L 332.476562 664.355469 L 332.476562 1328.546875 L 1139.523438 1328.546875 L 1139.523438 664.355469 L 1471.617188 664.355469 Z M 736 0.167969 " clip-rule="nonzero"/></clipPath><clipPath id="326d74fbd8"><rect x="0" width="1472" y="0" height="1329"/></clipPath><clipPath id="d331721d06"><path d="M 525 732.832031 L 975 732.832031 L 975 1397.023438 L 525 1397.023438 Z M 525 732.832031 " clip-rule="nonzero"/></clipPath><clipPath id="1ae4f9f3ee"><path d="M 0 0.832031 L 450 0.832031 L 450 665.023438 L 0 665.023438 Z M 0 0.832031 " clip-rule="nonzero"/></clipPath><clipPath id="0d649da678"><rect x="0" width="450" y="0" height="666"/></clipPath><clipPath id="60d947e0d5"><path d="M 596.195312 794.148438 L 727.707031 794.148438 L 727.707031 1029.722656 L 596.195312 1029.722656 Z M 596.195312 794.148438 " clip-rule="nonzero"/></clipPath><clipPath id="6ea52d52e4"><path d="M 0.195312 0.148438 L 131.707031 0.148438 L 131.707031 235.722656 L 0.195312 235.722656 Z M 0.195312 0.148438 " clip-rule="nonzero"/></clipPath><clipPath id="0d4a2db3a7"><rect x="0" width="132" y="0" height="236"/></clipPath><clipPath id="62d9508a72"><path d="M 772.292969 794.148438 L 903.804688 794.148438 L 903.804688 1029.722656 L 772.292969 1029.722656 Z M 772.292969 794.148438 " clip-rule="nonzero"/></clipPath><clipPath id="2c5d361f23"><path d="M 0.292969 0.148438 L 131.804688 0.148438 L 131.804688 235.722656 L 0.292969 235.722656 Z M 0.292969 0.148438 " clip-rule="nonzero"/></clipPath><clipPath id="ff8477acef"><rect x="0" width="132" y="0" height="236"/></clipPath><clipPath id="34adbba910"><path d="M 772.292969 1100.132812 L 903.804688 1100.132812 L 903.804688 1335.707031 L 772.292969 1335.707031 Z M 772.292969 1100.132812 " clip-rule="nonzero"/></clipPath><clipPath id="d4b016899b"><path d="M 0.292969 0.132812 L 131.804688 0.132812 L 131.804688 235.707031 L 0.292969 235.707031 Z M 0.292969 0.132812 " clip-rule="nonzero"/></clipPath><clipPath id="bc53621126"><rect x="0" width="132" y="0" height="236"/></clipPath><clipPath id="86d6da0834"><path d="M 596.195312 1100.132812 L 727.707031 1100.132812 L 727.707031 1335.707031 L 596.195312 1335.707031 Z M 596.195312 1100.132812 " clip-rule="nonzero"/></clipPath><clipPath id="9f7bcc1bd4"><path d="M 0.195312 0.132812 L 131.707031 0.132812 L 131.707031 235.707031 L 0.195312 235.707031 Z M 0.195312 0.132812 " clip-rule="nonzero"/></clipPath><clipPath id="e6a3f7acb8"><rect x="0" width="132" y="0" height="236"/></clipPath></defs><rect x="-150" width="1800" fill="#ffffff" y="-149.999993" height="1799.99992" fill-opacity="1"/><rect x="-150" width="1800" fill="#ffffff" y="-149.999993" height="1799.99992" fill-opacity="1"/><g clip-path="url(#b8ea971a8f)"><g transform="matrix(1, 0, 0, 1, 191, 629)"><g clip-path="url(#7baf0206a6)"><g clip-path="url(#2afd3558da)"><path fill="#444444" d="M 0.785156 0.855469 L 1115.660156 0.855469 L 1115.660156 871 L 0.785156 871 Z M 0.785156 0.855469 " fill-opacity="1" fill-rule="nonzero"/></g></g></g></g><g clip-path="url(#ed46aeac9e)"><g clip-path="url(#7d62146b02)"><g transform="matrix(1, 0, 0, 1, 14, 3)"><g clip-path="url(#326d74fbd8)"><g clip-path="url(#f0dbb7315a)"><g clip-path="url(#d0e3cad890)"><path fill="#444444" d="M 0.382812 0.167969 L 1474.050781 0.167969 L 1474.050781 1328.546875 L 0.382812 1328.546875 Z M 0.382812 0.167969 " fill-opacity="1" fill-rule="nonzero"/></g></g></g></g></g></g><g clip-path="url(#d331721d06)"><g transform="matrix(1, 0, 0, 1, 525, 732)"><g clip-path="url(#0d649da678)"><g clip-path="url(#1ae4f9f3ee)"><path fill="#0097b2" d="M 0 0.832031 L 450 0.832031 L 450 665.285156 L 0 665.285156 Z M 0 0.832031 " fill-opacity="1" fill-rule="nonzero"/></g></g></g></g><g clip-path="url(#60d947e0d5)"><g transform="matrix(1, 0, 0, 1, 596, 794)"><g clip-path="url(#0d4a2db3a7)"><g clip-path="url(#6ea52d52e4)"><path fill="#005c6d" d="M 0.195312 0.148438 L 131.707031 0.148438 L 131.707031 235.945312 L 0.195312 235.945312 Z M 0.195312 0.148438 " fill-opacity="1" fill-rule="nonzero"/></g></g></g></g><g clip-path="url(#62d9508a72)"><g transform="matrix(1, 0, 0, 1, 772, 794)"><g clip-path="url(#ff8477acef)"><g clip-path="url(#2c5d361f23)"><path fill="#005c6d" d="M 0.292969 0.148438 L 131.804688 0.148438 L 131.804688 235.945312 L 0.292969 235.945312 Z M 0.292969 0.148438 " fill-opacity="1" fill-rule="nonzero"/></g></g></g></g><g clip-path="url(#34adbba910)"><g transform="matrix(1, 0, 0, 1, 772, 1100)"><g clip-path="url(#bc53621126)"><g clip-path="url(#d4b016899b)"><path fill="#005c6d" d="M 0.292969 0.132812 L 131.804688 0.132812 L 131.804688 235.929688 L 0.292969 235.929688 Z M 0.292969 0.132812 " fill-opacity="1" fill-rule="nonzero"/></g></g></g></g><g clip-path="url(#86d6da0834)"><g transform="matrix(1, 0, 0, 1, 596, 1100)"><g clip-path="url(#e6a3f7acb8)"><g clip-path="url(#9f7bcc1bd4)"><path fill="#005c6d" d="M 0.195312 0.132812 L 131.707031 0.132812 L 131.707031 235.929688 L 0.195312 235.929688 Z M 0.195312 0.132812 " fill-opacity="1" fill-rule="nonzero"/></g></g></g></g></svg>