<svg xmlns="http://www.w3.org/2000/svg" xmlns:xlink="http://www.w3.org/1999/xlink" width="2000" zoomAndPan="magnify" viewBox="0 0 1500 1499.999933" height="2000" preserveAspectRatio="xMidYMid meet" version="1.0"><defs><clipPath id="0b8d8447a0"><path d="M 682 116 L 1487 116 L 1487 921 L 682 921 Z M 682 116 " clip-rule="nonzero"/></clipPath><clipPath id="addc8f8c43"><path d="M 751.179688 102.363281 L 1500.851562 852.035156 L 1418.660156 934.226562 L 668.988281 184.554688 Z M 751.179688 102.363281 " clip-rule="nonzero"/></clipPath><clipPath id="4411bc1ede"><path d="M 1476.972656 875.886719 L 1442.511719 910.347656 C 1436.179688 916.675781 1427.597656 920.230469 1418.644531 920.230469 C 1409.695312 920.230469 1401.109375 916.675781 1394.78125 910.347656 L 692.851562 208.417969 C 686.523438 202.089844 682.96875 193.503906 682.96875 184.554688 C 682.96875 175.601562 686.523438 167.019531 692.851562 160.691406 L 727.3125 126.226562 C 733.644531 119.898438 742.226562 116.34375 751.179688 116.34375 C 760.128906 116.34375 768.714844 119.898438 775.042969 126.226562 L 1476.972656 828.15625 C 1483.300781 834.484375 1486.855469 843.070312 1486.855469 852.019531 C 1486.855469 860.972656 1483.300781 869.554688 1476.972656 875.886719 Z M 1476.972656 875.886719 " clip-rule="nonzero"/></clipPath><clipPath id="c5a8a87799"><path d="M 0.800781 0.160156 L 805 0.160156 L 805 804.398438 L 0.800781 804.398438 Z M 0.800781 0.160156 " clip-rule="nonzero"/></clipPath><clipPath id="5bb5408e1e"><path d="M 69.179688 -13.636719 L 818.851562 736.035156 L 736.660156 818.226562 L -13.011719 68.554688 Z M 69.179688 -13.636719 " clip-rule="nonzero"/></clipPath><clipPath id="b7baad9781"><path d="M 794.972656 759.886719 L 760.511719 794.347656 C 754.179688 800.675781 745.597656 804.230469 736.644531 804.230469 C 727.695312 804.230469 719.109375 800.675781 712.78125 794.347656 L 10.851562 92.417969 C 4.523438 86.089844 0.96875 77.503906 0.96875 68.554688 C 0.96875 59.601562 4.523438 51.019531 10.851562 44.691406 L 45.3125 10.226562 C 51.644531 3.898438 60.226562 0.34375 69.179688 0.34375 C 78.128906 0.34375 86.714844 3.898438 93.042969 10.226562 L 794.972656 712.15625 C 801.300781 718.484375 804.855469 727.070312 804.855469 736.019531 C 804.855469 744.972656 801.300781 753.554688 794.972656 759.886719 Z M 794.972656 759.886719 " clip-rule="nonzero"/></clipPath><clipPath id="5ee413bc24"><rect x="0" width="805" y="0" height="805"/></clipPath><clipPath id="7c9164f8ff"><path d="M 13 116 L 818 116 L 818 921 L 13 921 Z M 13 116 " clip-rule="nonzero"/></clipPath><clipPath id="2eaf9e5e51"><path d="M 0.00390625 852.019531 L 749.675781 102.347656 L 831.867188 184.539062 L 82.195312 934.207031 Z M 0.00390625 852.019531 " clip-rule="nonzero"/></clipPath><clipPath id="6481b75755"><path d="M 773.527344 126.226562 L 807.988281 160.6875 C 814.316406 167.015625 817.871094 175.601562 817.871094 184.550781 C 817.871094 193.503906 814.316406 202.085938 807.988281 208.417969 L 106.058594 910.34375 C 99.730469 916.671875 91.144531 920.230469 82.195312 920.230469 C 73.242188 920.230469 64.660156 916.671875 58.328125 910.34375 L 23.867188 875.882812 C 17.539062 869.554688 13.984375 860.96875 13.984375 852.019531 C 13.984375 843.066406 17.539062 834.484375 23.867188 828.152344 L 725.796875 126.226562 C 732.125 119.894531 740.710938 116.339844 749.660156 116.339844 C 758.613281 116.339844 767.195312 119.894531 773.527344 126.226562 Z M 773.527344 126.226562 " clip-rule="nonzero"/></clipPath><clipPath id="739c0905e7"><path d="M 0.921875 0.160156 L 804.921875 0.160156 L 804.921875 804.398438 L 0.921875 804.398438 Z M 0.921875 0.160156 " clip-rule="nonzero"/></clipPath><clipPath id="f58862033c"><path d="M -12.996094 736.019531 L 736.675781 -13.652344 L 818.867188 68.539062 L 69.195312 818.207031 Z M -12.996094 736.019531 " clip-rule="nonzero"/></clipPath><clipPath id="1a2ae858db"><path d="M 760.527344 10.226562 L 794.988281 44.6875 C 801.316406 51.015625 804.871094 59.601562 804.871094 68.550781 C 804.871094 77.503906 801.316406 86.085938 794.988281 92.417969 L 93.058594 794.34375 C 86.730469 800.671875 78.144531 804.230469 69.195312 804.230469 C 60.242188 804.230469 51.660156 800.671875 45.328125 794.34375 L 10.867188 759.882812 C 4.539062 753.554688 0.984375 744.96875 0.984375 736.019531 C 0.984375 727.066406 4.539062 718.484375 10.867188 712.152344 L 712.796875 10.226562 C 719.125 3.894531 727.710938 0.339844 736.660156 0.339844 C 745.613281 0.339844 754.195312 3.894531 760.527344 10.226562 Z M 760.527344 10.226562 " clip-rule="nonzero"/></clipPath><clipPath id="8ae050dac2"><rect x="0" width="805" y="0" height="805"/></clipPath><clipPath id="16f46a8003"><path d="M 271 365 L 1229 365 L 1229 1350 L 271 1350 Z M 271 365 " clip-rule="nonzero"/></clipPath><clipPath id="cbc1d3ef71"><path d="M 723.484375 376.253906 L 276.386719 823.351562 C 271.945312 827.796875 270.613281 834.476562 273.019531 840.28125 C 275.421875 846.085938 281.085938 849.871094 287.371094 849.871094 L 462.433594 849.871094 C 472.378906 849.871094 481.917969 853.820312 488.953125 860.851562 C 495.984375 867.886719 499.933594 877.421875 499.933594 887.371094 L 499.933594 1312.5 C 499.933594 1322.445312 503.886719 1331.984375 510.917969 1339.015625 C 517.949219 1346.050781 527.488281 1350 537.433594 1350 L 962.566406 1350 C 972.511719 1350 982.050781 1346.050781 989.082031 1339.015625 C 996.113281 1331.984375 1000.066406 1322.445312 1000.066406 1312.5 L 1000.066406 887.371094 C 1000.066406 877.421875 1004.015625 867.886719 1011.046875 860.851562 C 1018.082031 853.820312 1027.621094 849.871094 1037.566406 849.871094 L 1212.628906 849.871094 C 1218.914062 849.871094 1224.578125 846.085938 1226.980469 840.28125 C 1229.386719 834.476562 1228.054688 827.796875 1223.613281 823.351562 L 776.515625 376.253906 C 769.484375 369.222656 759.945312 365.273438 750 365.273438 C 740.054688 365.273438 730.515625 369.222656 723.484375 376.253906 Z M 723.484375 376.253906 " clip-rule="nonzero"/></clipPath><clipPath id="1ee5213ce6"><path d="M 0 0.0390625 L 958 0.0390625 L 958 985 L 0 985 Z M 0 0.0390625 " clip-rule="nonzero"/></clipPath><clipPath id="6e0b023621"><path d="M 452.484375 11.253906 L 5.386719 458.351562 C 0.945312 462.796875 -0.386719 469.476562 2.019531 475.28125 C 4.421875 481.085938 10.085938 484.871094 16.371094 484.871094 L 191.433594 484.871094 C 201.378906 484.871094 210.917969 488.820312 217.953125 495.851562 C 224.984375 502.886719 228.933594 512.421875 228.933594 522.371094 L 228.933594 947.5 C 228.933594 957.445312 232.886719 966.984375 239.917969 974.015625 C 246.949219 981.050781 256.488281 985 266.433594 985 L 691.566406 985 C 701.511719 985 711.050781 981.050781 718.082031 974.015625 C 725.113281 966.984375 729.066406 957.445312 729.066406 947.5 L 729.066406 522.371094 C 729.066406 512.421875 733.015625 502.886719 740.046875 495.851562 C 747.082031 488.820312 756.621094 484.871094 766.566406 484.871094 L 941.628906 484.871094 C 947.914062 484.871094 953.578125 481.085938 955.980469 475.28125 C 958.386719 469.476562 957.054688 462.796875 952.613281 458.351562 L 505.515625 11.253906 C 498.484375 4.222656 488.945312 0.273438 479 0.273438 C 469.054688 0.273438 459.515625 4.222656 452.484375 11.253906 Z M 452.484375 11.253906 " clip-rule="nonzero"/></clipPath><clipPath id="728fa1305f"><rect x="0" width="958" y="0" height="985"/></clipPath><clipPath id="f496fb7df5"><path d="M 266.410156 811.957031 L 1235 811.957031 L 1235 1350 L 266.410156 1350 Z M 266.410156 811.957031 " clip-rule="nonzero"/></clipPath><clipPath id="fda537874a"><path d="M 303.910156 811.957031 L 1196.964844 811.957031 C 1206.914062 811.957031 1216.449219 815.90625 1223.484375 822.9375 C 1230.515625 829.972656 1234.464844 839.511719 1234.464844 849.457031 L 1234.464844 1312.5 C 1234.464844 1322.445312 1230.515625 1331.984375 1223.484375 1339.015625 C 1216.449219 1346.050781 1206.914062 1350 1196.964844 1350 L 303.910156 1350 C 293.964844 1350 284.425781 1346.050781 277.394531 1339.015625 C 270.363281 1331.984375 266.410156 1322.445312 266.410156 1312.5 L 266.410156 849.457031 C 266.410156 839.511719 270.363281 829.972656 277.394531 822.9375 C 284.425781 815.90625 293.964844 811.957031 303.910156 811.957031 Z M 303.910156 811.957031 " clip-rule="nonzero"/></clipPath><clipPath id="cab3ad8ac2"><path d="M 0.410156 0.957031 L 968.558594 0.957031 L 968.558594 539 L 0.410156 539 Z M 0.410156 0.957031 " clip-rule="nonzero"/></clipPath><clipPath id="119922bab8"><path d="M 37.910156 0.957031 L 930.964844 0.957031 C 940.914062 0.957031 950.449219 4.90625 957.484375 11.9375 C 964.515625 18.972656 968.464844 28.511719 968.464844 38.457031 L 968.464844 501.5 C 968.464844 511.445312 964.515625 520.984375 957.484375 528.015625 C 950.449219 535.050781 940.914062 539 930.964844 539 L 37.910156 539 C 27.964844 539 18.425781 535.050781 11.394531 528.015625 C 4.363281 520.984375 0.410156 511.445312 0.410156 501.5 L 0.410156 38.457031 C 0.410156 28.511719 4.363281 18.972656 11.394531 11.9375 C 18.425781 4.90625 27.964844 0.957031 37.910156 0.957031 Z M 37.910156 0.957031 " clip-rule="nonzero"/></clipPath><clipPath id="2ce2d7fad9"><rect x="0" width="969" y="0" height="539"/></clipPath><clipPath id="9556c6fa93"><path d="M 1021.914062 214.660156 L 1138.148438 214.660156 L 1138.148438 533.851562 L 1021.914062 533.851562 Z M 1021.914062 214.660156 " clip-rule="nonzero"/></clipPath><clipPath id="10d018e14e"><path d="M 1104.398438 533.773438 L 1055.664062 533.773438 C 1046.714844 533.773438 1038.128906 530.21875 1031.800781 523.890625 C 1025.46875 517.5625 1021.914062 508.976562 1021.914062 500.023438 L 1021.914062 248.410156 C 1021.914062 239.457031 1025.46875 230.875 1031.800781 224.542969 C 1038.128906 218.214844 1046.714844 214.660156 1055.664062 214.660156 L 1104.398438 214.660156 C 1113.351562 214.660156 1121.9375 218.214844 1128.265625 224.542969 C 1134.59375 230.875 1138.148438 239.457031 1138.148438 248.410156 L 1138.148438 500.023438 C 1138.148438 508.976562 1134.59375 517.5625 1128.265625 523.890625 C 1121.9375 530.21875 1113.351562 533.773438 1104.398438 533.773438 Z M 1104.398438 533.773438 " clip-rule="nonzero"/></clipPath><clipPath id="9e8f723895"><path d="M 0.914062 0.660156 L 117.148438 0.660156 L 117.148438 319.851562 L 0.914062 319.851562 Z M 0.914062 0.660156 " clip-rule="nonzero"/></clipPath><clipPath id="a15450c2b5"><path d="M 83.398438 319.773438 L 34.664062 319.773438 C 25.714844 319.773438 17.128906 316.21875 10.800781 309.890625 C 4.46875 303.5625 0.914062 294.976562 0.914062 286.023438 L 0.914062 34.410156 C 0.914062 25.457031 4.46875 16.875 10.800781 10.542969 C 17.128906 4.214844 25.714844 0.660156 34.664062 0.660156 L 83.398438 0.660156 C 92.351562 0.660156 100.9375 4.214844 107.265625 10.542969 C 113.59375 16.875 117.148438 25.457031 117.148438 34.410156 L 117.148438 286.023438 C 117.148438 294.976562 113.59375 303.5625 107.265625 309.890625 C 100.9375 316.21875 92.351562 319.773438 83.398438 319.773438 Z M 83.398438 319.773438 " clip-rule="nonzero"/></clipPath><clipPath id="0856d0ec6c"><rect x="0" width="118" y="0" height="320"/></clipPath></defs><g clip-path="url(#0b8d8447a0)"><g clip-path="url(#addc8f8c43)"><g clip-path="url(#4411bc1ede)"><g transform="matrix(1, 0, 0, 1, 682, 116)"><g clip-path="url(#5ee413bc24)"><g clip-path="url(#c5a8a87799)"><g clip-path="url(#5bb5408e1e)"><g clip-path="url(#b7baad9781)"><path fill="#444444" d="M 69.179688 -13.636719 L 818.851562 736.035156 L 736.660156 818.226562 L -13.011719 68.554688 Z M 69.179688 -13.636719 " fill-opacity="1" fill-rule="nonzero"/></g></g></g></g></g></g></g></g><g clip-path="url(#7c9164f8ff)"><g clip-path="url(#2eaf9e5e51)"><g clip-path="url(#6481b75755)"><g transform="matrix(1, 0, 0, 1, 13, 116)"><g clip-path="url(#8ae050dac2)"><g clip-path="url(#739c0905e7)"><g clip-path="url(#f58862033c)"><g clip-path="url(#1a2ae858db)"><path fill="#444444" d="M -12.996094 736.019531 L 736.675781 -13.652344 L 818.867188 68.539062 L 69.195312 818.207031 Z M -12.996094 736.019531 " fill-opacity="1" fill-rule="nonzero"/></g></g></g></g></g></g></g></g><g clip-path="url(#16f46a8003)"><g clip-path="url(#cbc1d3ef71)"><g transform="matrix(1, 0, 0, 1, 271, 365)"><g clip-path="url(#728fa1305f)"><g clip-path="url(#1ee5213ce6)"><g clip-path="url(#6e0b023621)"><rect x="-601" width="2160" fill="#444444" height="2159.999904" y="-694.999985" fill-opacity="1"/></g></g></g></g></g></g><g clip-path="url(#f496fb7df5)"><g clip-path="url(#fda537874a)"><g transform="matrix(1, 0, 0, 1, 266, 811)"><g clip-path="url(#2ce2d7fad9)"><g clip-path="url(#cab3ad8ac2)"><g clip-path="url(#119922bab8)"><path fill="#444444" d="M 0.410156 0.957031 L 969.3125 0.957031 L 969.3125 539 L 0.410156 539 Z M 0.410156 0.957031 " fill-opacity="1" fill-rule="nonzero"/></g></g></g></g></g></g><g clip-path="url(#9556c6fa93)"><g clip-path="url(#10d018e14e)"><g transform="matrix(1, 0, 0, 1, 1021, 214)"><g clip-path="url(#0856d0ec6c)"><g clip-path="url(#9e8f723895)"><g clip-path="url(#a15450c2b5)"><path fill="#444444" d="M 117.148438 0.660156 L 117.148438 319.851562 L 0.914062 319.851562 L 0.914062 0.660156 Z M 117.148438 0.660156 " fill-opacity="1" fill-rule="nonzero"/></g></g></g></g></g></g></svg>