<svg xmlns="http://www.w3.org/2000/svg" xmlns:xlink="http://www.w3.org/1999/xlink" width="2000" zoomAndPan="magnify" viewBox="0 0 1500 1499.999933" height="2000" preserveAspectRatio="xMidYMid meet" version="1.0"><defs><clipPath id="2dd4af8963"><path d="M 622.070312 416 L 877.894531 416 L 877.894531 1440.203125 L 622.070312 1440.203125 Z M 622.070312 416 " clip-rule="nonzero"/></clipPath><clipPath id="272157ac2a"><path d="M 659.570312 416.707031 L 840.394531 416.707031 C 850.339844 416.707031 859.878906 420.65625 866.914062 427.691406 C 873.945312 434.722656 877.894531 444.261719 877.894531 454.207031 L 877.894531 1402.703125 C 877.894531 1412.648438 873.945312 1422.1875 866.914062 1429.21875 C 859.878906 1436.253906 850.339844 1440.203125 840.394531 1440.203125 L 659.570312 1440.203125 C 649.625 1440.203125 640.085938 1436.253906 633.054688 1429.21875 C 626.019531 1422.1875 622.070312 1412.648438 622.070312 1402.703125 L 622.070312 454.207031 C 622.070312 444.261719 626.019531 434.722656 633.054688 427.691406 C 640.085938 420.65625 649.625 416.707031 659.570312 416.707031 Z M 659.570312 416.707031 " clip-rule="nonzero"/></clipPath><clipPath id="4e9a5e2e87"><path d="M 0.0703125 0.640625 L 255.894531 0.640625 L 255.894531 1024.203125 L 0.0703125 1024.203125 Z M 0.0703125 0.640625 " clip-rule="nonzero"/></clipPath><clipPath id="cac2b9435e"><path d="M 37.570312 0.707031 L 218.394531 0.707031 C 228.339844 0.707031 237.878906 4.65625 244.914062 11.691406 C 251.945312 18.722656 255.894531 28.261719 255.894531 38.207031 L 255.894531 986.703125 C 255.894531 996.648438 251.945312 1006.1875 244.914062 1013.21875 C 237.878906 1020.253906 228.339844 1024.203125 218.394531 1024.203125 L 37.570312 1024.203125 C 27.625 1024.203125 18.085938 1020.253906 11.054688 1013.21875 C 4.019531 1006.1875 0.0703125 996.648438 0.0703125 986.703125 L 0.0703125 38.207031 C 0.0703125 28.261719 4.019531 18.722656 11.054688 11.691406 C 18.085938 4.65625 27.625 0.707031 37.570312 0.707031 Z M 37.570312 0.707031 " clip-rule="nonzero"/></clipPath><clipPath id="46673742d1"><rect x="0" width="256" y="0" height="1025"/></clipPath><clipPath id="991f9a99bc"><path d="M 622.070312 59.789062 L 877.953125 59.789062 L 877.953125 314.675781 L 622.070312 314.675781 Z M 622.070312 59.789062 " clip-rule="nonzero"/></clipPath><clipPath id="afcd4355e6"><path d="M 659.570312 59.789062 L 840.394531 59.789062 C 850.339844 59.789062 859.878906 63.742188 866.914062 70.773438 C 873.945312 77.804688 877.894531 87.34375 877.894531 97.289062 L 877.894531 277.175781 C 877.894531 287.121094 873.945312 296.660156 866.914062 303.691406 C 859.878906 310.726562 850.339844 314.675781 840.394531 314.675781 L 659.570312 314.675781 C 649.625 314.675781 640.085938 310.726562 633.054688 303.691406 C 626.019531 296.660156 622.070312 287.121094 622.070312 277.175781 L 622.070312 97.289062 C 622.070312 87.34375 626.019531 77.804688 633.054688 70.773438 C 640.085938 63.742188 649.625 59.789062 659.570312 59.789062 Z M 659.570312 59.789062 " clip-rule="nonzero"/></clipPath><clipPath id="24f6bfac99"><path d="M 0.0703125 0.789062 L 255.921875 0.789062 L 255.921875 255.675781 L 0.0703125 255.675781 Z M 0.0703125 0.789062 " clip-rule="nonzero"/></clipPath><clipPath id="3f8fd3335b"><path d="M 37.570312 0.789062 L 218.394531 0.789062 C 228.339844 0.789062 237.878906 4.742188 244.914062 11.773438 C 251.945312 18.804688 255.894531 28.34375 255.894531 38.289062 L 255.894531 218.175781 C 255.894531 228.121094 251.945312 237.660156 244.914062 244.691406 C 237.878906 251.726562 228.339844 255.675781 218.394531 255.675781 L 37.570312 255.675781 C 27.625 255.675781 18.085938 251.726562 11.054688 244.691406 C 4.019531 237.660156 0.0703125 228.121094 0.0703125 218.175781 L 0.0703125 38.289062 C 0.0703125 28.34375 4.019531 18.804688 11.054688 11.773438 C 18.085938 4.742188 27.625 0.789062 37.570312 0.789062 Z M 37.570312 0.789062 " clip-rule="nonzero"/></clipPath><clipPath id="bf1a3de11a"><rect x="0" width="256" y="0" height="256"/></clipPath></defs><g clip-path="url(#2dd4af8963)"><g clip-path="url(#272157ac2a)"><g transform="matrix(1, 0, 0, 1, 622, 416)"><g clip-path="url(#46673742d1)"><g clip-path="url(#4e9a5e2e87)"><g clip-path="url(#cac2b9435e)"><path fill="#444444" d="M 0.0703125 1024.203125 L 0.0703125 0.898438 L 255.894531 0.898438 L 255.894531 1024.203125 Z M 0.0703125 1024.203125 " fill-opacity="1" fill-rule="nonzero"/></g></g></g></g></g></g><g clip-path="url(#991f9a99bc)"><g clip-path="url(#afcd4355e6)"><g transform="matrix(1, 0, 0, 1, 622, 59)"><g clip-path="url(#bf1a3de11a)"><g clip-path="url(#24f6bfac99)"><g clip-path="url(#3f8fd3335b)"><path fill="#444444" d="M 0.0703125 255.675781 L 0.0703125 0.789062 L 255.953125 0.789062 L 255.953125 255.675781 Z M 0.0703125 255.675781 " fill-opacity="1" fill-rule="nonzero"/></g></g></g></g></g></g></svg>